<svg width="271" height="271" viewBox="0 0 271 271" fill="none" xmlns="http://www.w3.org/2000/svg">
<path fill-rule="evenodd" clip-rule="evenodd" d="M205.25 127.375L136.106 7L66.2715 127.375H205.25ZM182.666 116.083L146.366 52.6741L109.702 116.083H182.666Z" fill="white"/>
<path fill-rule="evenodd" clip-rule="evenodd" d="M111.875 127.375H23V263.5H111.875V127.375ZM100.625 158.875H52.25V252.25H100.625V158.875Z" fill="white"/>
<path fill-rule="evenodd" clip-rule="evenodd" d="M178.813 263.5C217.024 263.5 248 232.524 248 194.312C248 156.101 217.024 125.125 178.813 125.125C140.602 125.125 109.625 156.101 109.625 194.312C109.625 232.524 140.602 263.5 178.813 263.5ZM178.812 256.638C198.076 256.638 213.692 241.022 213.692 221.759C213.692 202.495 198.076 186.879 178.812 186.879C159.549 186.879 143.933 202.495 143.933 221.759C143.933 241.022 159.549 256.638 178.812 256.638Z" fill="white"/>
</svg>
