<svg width="469" height="521" viewBox="0 0 469 521" fill="none" xmlns="http://www.w3.org/2000/svg">
<path fill-rule="evenodd" clip-rule="evenodd" d="M210.5 421C326.756 421 421 326.756 421 210.5C421 94.2441 326.756 0 210.5 0C94.2441 0 0 94.2441 0 210.5C0 326.756 94.2441 421 210.5 421ZM256.5 384C337.962 384 404 318.186 404 237C404 155.814 337.962 90 256.5 90C175.038 90 109 155.814 109 237C109 318.186 175.038 384 256.5 384Z" fill="white"/>
<path d="M22 521C22 521 29.9452 412.161 100.931 398.396C171.917 384.631 155.445 435.226 261.728 422.577C368.011 409.929 469 398.396 469 398.396L22 521Z" fill="white"/>
<path fill-rule="evenodd" clip-rule="evenodd" d="M185 154L216.008 321H185V154ZM288.897 154L311.449 299.131V154H334V321H311.449L267.554 198.732V240.482L282.454 321H245.003L185 154H222.451L245.003 299.131V154H288.897Z" fill="white"/>
</svg>
