<svg width="670" height="670" viewBox="0 0 670 670" fill="none" xmlns="http://www.w3.org/2000/svg">
<g clip-path="url(#clip0_31_35)">
<path fill-rule="evenodd" clip-rule="evenodd" d="M334.5 66C405.711 66 474.005 94.2883 524.358 144.642C574.712 194.995 603 263.289 603 334.5C603 405.711 574.712 474.005 524.358 524.358C474.005 574.712 405.711 603 334.5 603C263.289 603 194.995 574.712 144.642 524.358C94.2883 474.005 66 405.711 66 334.5C66 263.289 94.2883 194.995 144.642 144.642C194.995 94.2883 263.289 66 334.5 66ZM99.5625 356.848V356.602C99.2477 414.786 122.059 470.713 162.979 512.078C203.899 553.443 259.575 576.858 317.76 577.173C375.944 577.488 431.87 554.676 473.235 513.756C514.6 472.837 538.016 417.16 538.331 358.976C450.495 406.7 371.337 434.369 300.937 441.9C296.593 451.256 289.563 459.109 280.742 464.457C271.921 469.806 261.708 472.409 251.403 471.935C241.098 471.461 231.167 467.931 222.874 461.795C214.581 455.66 208.301 447.195 204.834 437.48C182.564 432.294 161.656 422.42 143.503 408.516C125.35 394.612 110.37 376.998 99.5625 356.848ZM318.947 137.218C265.6 137.222 214.083 156.664 174.035 191.906C133.986 227.148 108.151 275.775 101.363 328.688C127.804 368.144 161.94 393.848 203.852 405.8C207.064 394.529 213.99 384.673 223.508 377.834C233.025 370.994 244.574 367.572 256.281 368.122C267.988 368.671 279.166 373.161 288 380.863C296.835 388.564 302.807 399.025 304.949 410.548C369.209 402.198 446.566 375.757 536.857 331.226C533.419 300.937 523.76 272.368 509.025 247.074C505.341 248.711 501.33 250.266 497.155 251.412C468.013 259.762 420.043 274.988 435.269 234.713C447.303 202.788 449.349 197.221 464.084 192.146C424.052 156.7 372.416 137.158 318.947 137.218ZM455.243 295.044C474.889 289.477 491.916 289.313 493.472 294.798C495.109 300.201 496.746 317.719 458.681 328.934C420.698 340.148 405.964 334.336 404.408 328.934C402.771 323.449 435.679 300.692 455.243 295.044Z" fill="white"/>
</g>
<defs>
<clipPath id="clip0_31_35">
<rect width="537" height="537" fill="white" transform="translate(66 66)"/>
</clipPath>
</defs>
</svg>
